<?xml version="1.0" standalone="no"?><!DOCTYPE svg PUBLIC "-//W3C//DTD SVG 1.1//EN" "http://www.w3.org/Graphics/SVG/1.1/DTD/svg11.dtd"><svg t="1755161377763" class="icon" viewBox="0 0 1024 1024" version="1.1" xmlns="http://www.w3.org/2000/svg" p-id="7745" xmlns:xlink="http://www.w3.org/1999/xlink" width="200" height="200"><path d="M794.350933 310.3744a11.298133 11.298133 0 0 0-14.404266-4.539733c-21.504 9.796267-75.1616 38.126933-99.293867 86.1184-1.706667 3.4816-6.929067 2.1504-6.792533-1.706667 4.334933-110.250667-60.074667-251.2896-198.382934-306.176a11.332267 11.332267 0 0 0-14.472533 5.700267c-18.158933 38.7072-90.624 186.026667-178.449067 264.704a359.3216 359.3216 0 0 0-132.573866 279.108266c0 129.092267 67.9936 242.346667 170.0864 305.8688 20.036267 12.4928 44.714667-6.929067 37.649066-29.457066-44.919467-143.5648 104.106667-249.1392 161.314134-283.5456 8.157867-4.9152 18.397867 1.809067 17.066666 11.264-4.027733 29.627733-5.7344 79.394133 23.722667 99.669333 43.178667 29.832533 120.354133 50.176 91.067733 181.76l-0.136533 0.648533c-4.881067 21.572267 18.0224 38.912 37.2736 28.0576 103.901867-58.641067 174.148267-169.130667 181.930667-305.015466 10.001067-174.421333-56.183467-299.7248-75.605334-332.458667z m-389.154133 38.161067c-1.706667 2.2528-41.506133 55.3984-82.397867 90.248533a19.899733 19.899733 0 0 1-28.194133-2.2528 20.002133 20.002133 0 0 1 2.2528-28.194133c37.546667-31.9488 75.8784-83.182933 76.253867-83.694934a20.002133 20.002133 0 0 1 32.085333 23.893334z" p-id="7746" fill="#999999"></path></svg>