<?xml version="1.0" standalone="no"?><!DOCTYPE svg PUBLIC "-//W3C//DTD SVG 1.1//EN" "http://www.w3.org/Graphics/SVG/1.1/DTD/svg11.dtd"><svg t="1753090182223" class="icon" viewBox="0 0 1024 1024" version="1.1" xmlns="http://www.w3.org/2000/svg" p-id="8050" xmlns:xlink="http://www.w3.org/1999/xlink" width="200" height="200"><path d="M883.467 987.52h-738.56A106.667 106.667 0 0 1 38.24 880.853v-738.56A106.667 106.667 0 0 1 144.907 35.627h738.56a106.667 106.667 0 0 1 106.666 106.666v738.56A106.667 106.667 0 0 1 883.467 987.52z" fill="#d81e06" p-id="8051" data-spm-anchor-id="a313x.search_index.0.i0.74403a81ggrqRK" class=""></path><path d="M425.529 409.714a1601.254 1601.254 0 0 1-35.783 12.06c-13.142 4.324-27.193 8.59-42.155 12.857v113.323c0 16.042-1.365 29.468-4.039 40.163a50.29 50.29 0 0 1-15.303 26.112c-7.51 6.713-17.693 11.776-30.55 15.303s-29.127 5.974-48.98 7.624l-40.96 3.242-19.286-54.67 48.242-3.982c11.776-1.081 21.39-2.219 28.9-3.584a34.418 34.418 0 0 0 17.293-7.225 26.055 26.055 0 0 0 8.022-14.564c1.308-6.144 1.99-14.279 1.99-24.519v-80.327a3358.295 3358.295 0 0 1-74.694 20.878c-24.121 6.429-44.772 11.264-61.895 14.45l-6.429-57.06a608.142 608.142 0 0 0 64.285-14.051c25.201-6.656 51.427-14.052 78.734-22.073V290.816H178.859v-53.817H292.92V126.92l54.67 1.593v108.487h92.388v53.817H347.59v85.96l72.306-23.325 3.243 28.16 2.389 28.103z m-258.73 417.849c17.123-27.307 33.052-56.093 47.786-86.415 14.734-30.208 26.624-59.847 35.726-88.803l53.817 16.043a1140.053 1140.053 0 0 1-83.57 184.832l-53.76-25.657z m269.197-165.49c3.698 10.183 7.737 22.528 12.06 36.92 4.268 14.45 8.42 29.355 12.46 44.602a749.284 749.284 0 0 1 17.294 83.968l-56.263 17.692a412.046 412.046 0 0 0-6.03-42.553 1504.597 1504.597 0 0 0-9.615-46.592c-3.527-15.53-7.395-30.55-11.662-44.999s-8.306-26.795-12.06-36.92l53.816-12.118zM714.81 544.768c-1.593-7.51-3.072-18.489-4.38-32.939s-2.731-30.265-4.04-47.388a1100.488 1100.488 0 0 1-2.787-53.419c-0.57-18.489-0.854-35.498-0.854-50.972v-72.477H591.872c-0.569 27.307-1.593 52.509-3.243 75.549a533.049 533.049 0 0 1-8.021 63.488c22.528 11.776 44.032 23.722 64.683 35.726 20.593 12.117 37.888 22.926 51.825 32.597l-27.306 57.06a507.847 507.847 0 0 0-46.99-34.133 1241.543 1241.543 0 0 0-58.255-35.727c-11.833 31.005-28.273 59.392-49.436 85.106s-49.152 52.793-83.968 81.18l-44.203-42.61c17.693-12.856 33.337-25.144 46.99-36.92 13.654-11.833 25.714-23.78 36.182-35.84a244.224 244.224 0 0 0 46.194-77.483 826.596 826.596 0 0 0-78.792-36.978L460.06 371.2c20.367 7.51 43.691 17.692 69.917 30.55 2.674-16.1 4.551-33.451 5.632-52.225 1.08-18.773 1.877-39.367 2.39-61.895H460.06v-56.263h77.938V128.512l53.874 1.593v101.262h164.693v125.326a1441.394 1441.394 0 0 0 6.827 138.582c1.308 12.572 2.56 22.869 3.584 30.947 2.73 12.288 6.428 22.073 11.264 29.298s9.387 10.866 13.653 10.866c5.917 0 10.81-2.39 14.848-7.225 4.04-4.836 8.192-13.938 12.516-27.307a300.373 300.373 0 0 0 8.021-34.133c2.162-12.06 4.04-23.438 5.632-34.19l45.853 25.713c-4.267 17.124-8.534 33.906-12.914 50.233a256 256 0 0 1-16.84 46.194 102.628 102.628 0 0 1-25.713 34.589 54.613 54.613 0 0 1-36.181 12.856 48.526 48.526 0 0 1-19.286-4.437 60.757 60.757 0 0 1-20.138-14.45 116.964 116.964 0 0 1-18.432-26.908 170.894 170.894 0 0 1-14.45-42.553zM600.689 648.42c4.836 10.183 10.07 22.13 15.645 35.726 5.69 13.653 11.264 27.99 16.896 43.008s10.81 30.265 15.645 45.852c4.835 15.474 8.817 30.208 12.06 44.146l-54.613 20.878a583.168 583.168 0 0 0-12.118-46.592 1431.609 1431.609 0 0 0-30.094-90.396 367.616 367.616 0 0 0-14.905-34.93l51.485-17.692z m153.487-12.06c7.51 10.694 15.929 23.722 25.316 38.968a1363.968 1363.968 0 0 1 54.613 97.223c8.306 16.384 14.905 30.436 19.74 42.212l-52.28 35.328a600.633 600.633 0 0 0-18.888-45.796 1038.165 1038.165 0 0 0-24.917-51.427c-8.818-17.124-17.92-33.337-27.307-48.584s-17.578-27.989-24.519-38.172l48.242-29.753z" fill="#ffffff" p-id="8052" data-spm-anchor-id="a313x.search_index.0.i3.74403a81ggrqRK" class="selected"></path></svg>