<?xml version="1.0" standalone="no"?><!DOCTYPE svg PUBLIC "-//W3C//DTD SVG 1.1//EN" "http://www.w3.org/Graphics/SVG/1.1/DTD/svg11.dtd"><svg t="1753084903893" class="icon" viewBox="0 0 1024 1024" version="1.1" xmlns="http://www.w3.org/2000/svg" p-id="11985" xmlns:xlink="http://www.w3.org/1999/xlink" width="200" height="200"><path d="M800.832 960H224.128A96.192 96.192 0 0 1 128 864v-640C128 171.072 171.136 128 224.128 128h576.64c53.056 0 96.192 43.072 96.192 96v640c0 52.928-43.136 96-96.128 96zM224.128 192c-17.664 0-32 14.336-32 32v640a32 32 0 0 0 32 32h576.64a32 32 0 0 0 32.064-32v-640a32 32 0 0 0-32-32H224.128z m417.472 384.832H288a32 32 0 1 1 0-64h353.6a32 32 0 1 1 0 64z m94.08 190.72H287.808a32 32 0 1 1 0-64h447.744a32 32 0 1 1 0 64zM255.808 337.28c0 26.496 21.504 48 48 48h0.064a48 48 0 1 0 0-96 48 48 0 0 0-48.064 48z m207.616 0c0 26.496 21.504 48 48 48h0.064c0.064 0 48.064-21.504 48.064-48a48 48 0 0 0-48-48h-0.064a48 48 0 0 0-48 48z m208.384 0c0 26.496 21.504 48 48 48h0.064c0.064 0 48-21.504 48.064-48a48 48 0 0 0-48-48h-0.064a48 48 0 0 0-48 48z" fill="#000000" p-id="11986"></path></svg>