<?xml version="1.0" standalone="no"?><!DOCTYPE svg PUBLIC "-//W3C//DTD SVG 1.1//EN" "http://www.w3.org/Graphics/SVG/1.1/DTD/svg11.dtd"><svg t="1753777706129" class="icon" viewBox="0 0 1024 1024" version="1.1" xmlns="http://www.w3.org/2000/svg" p-id="7965" xmlns:xlink="http://www.w3.org/1999/xlink" width="200" height="200"><path d="M249.6 268.8l3.072 4.864 64 128a32 32 0 0 1-54.272 33.536l-3.0208-4.864-32.2048-64.3584a320 320 0 0 0 412.16 439.7056 32 32 0 1 1 25.4464 58.7264 384 384 0 0 1-503.296-509.3376l-51.2 25.5488a32 32 0 0 1-39.8848-9.4208l-3.0208-4.864a32 32 0 0 1 9.4208-39.936l4.9152-3.0208 128-64a32 32 0 0 1 39.8848 9.4208zM512 128a384 384 0 0 1 350.5664 540.9792l51.0976-25.6a32 32 0 0 1 39.936 9.4208l3.0208 4.864a32 32 0 0 1-9.4208 39.936l-4.9152 3.0208-128 64a32 32 0 0 1-39.8848-9.4208l-3.072-4.864-64-128a32 32 0 0 1 54.272-33.536l3.0208 4.864 32.256 64.3584a320 320 0 0 0-412.9792-439.296 32 32 0 1 1-25.7024-58.6752A382.7712 382.7712 0 0 1 512 128z" fill="#626675" p-id="7966"></path></svg>