<?xml version="1.0" standalone="no"?><!DOCTYPE svg PUBLIC "-//W3C//DTD SVG 1.1//EN" "http://www.w3.org/Graphics/SVG/1.1/DTD/svg11.dtd"><svg t="1754462052775" class="icon" viewBox="0 0 1024 1024" version="1.1" xmlns="http://www.w3.org/2000/svg" p-id="9246" xmlns:xlink="http://www.w3.org/1999/xlink" width="200" height="200"><path d="M648.828 642.758c3.75 0 7.484 0.488 11.099 1.451l198.691 52.854a42.937 42.937 0 0 1 7.505 2.76c11.903 5.695 25.304 14.368 37.94 26.505 19.495 18.727 32.755 41.854 36.573 69.448 0.27 1.958 0.395 3.913 0.395 5.881v117.92c0 23.848-19.333 43.181-43.181 43.181H126.212c-23.849 0-43.181-19.333-43.181-43.181v-117.84l-0.015-0.488c-0.116-4.4 0.262-10.004 1.464-16.519 1.863-10.092 5.392-20.382 10.987-30.448 14.92-26.841 41.774-47.418 81.734-58.351l1.215-0.329 170.776-51.036a43.184 43.184 0 0 1 12.363-1.808h287.273z m-0.24 45H361.823l-171.186 51.159-1.213 0.324c-28.66 7.764-45.642 20.745-54.624 36.904-3.106 5.588-5.053 11.266-6.066 16.754a45 45 0 0 0-0.675 5.338l-0.034 0.633c-0.008 0.2-0.014 0.388-0.023 0.566v0.603l0.018 0.643c0.005 0.216 0.009 0.429 0.01 0.646l0.002 116.43h768V801.734c-2.353-16.621-10.527-30.835-23.141-42.952-8.708-8.365-18.135-14.487-25.99-18.27l-198.311-52.754z m-2.526-587.61c19.85 11.165 34.806 27.907 45.136 49.022 8.643 17.667 13.885 38.003 16.306 60.474 3.077 28.558 1.503 58.625-2.96 87.787-0.5 3.268-1.02 6.396-1.549 9.37 1.205 0.958 2.376 1.924 3.516 2.897 24.114 20.584 34.128 44.903 29.96 70.13-3.12 18.894-13.584 35.817-28.723 51.212-5.907 6.006-12.164 11.381-18.43 16.105-1.11 0.837-2.185 1.626-3.218 2.366a356.45 356.45 0 0 0-4.932 10.847l-0.378 0.87-0.771 1.78-0.746 1.738c0.104-0.244-11.333 27.24-16.557 39.217l-0.156 0.358-0.756 1.718-0.763 1.707c-15.515 34.47-31.046 59.03-52.495 78.518-27.758 25.22-62.803 38.242-106.403 37.49-32.271-0.556-61.835-12.303-88.356-33.188-21.62-17.026-40.632-39.613-57.362-66.372-12.925-20.674-23.779-42.677-32.694-64.668a421.596 421.596 0 0 1-7.234-19.123l-0.38-1.095-0.87-0.482c-28.565-15.972-42.219-41.526-41.803-71.989 0.25-18.304 5.436-36.922 13.815-55.308a197.128 197.128 0 0 1 8.576-16.672l0.063-0.11c-5.704-52.006 0.369-94.594 17.05-128.314 15.003-30.33 37.87-52.16 66.107-66.374 16.992-8.554 34.978-13.888 53.091-16.687 8.666-1.34 16.437-1.976 22.995-2.138l0.724-0.016 1.589-0.9c52.489-29.363 110.773-23.953 188.608 19.83z m-166.05 146.246l-0.926-0.859c-32.908 31.132-66.392 51.973-99.297 64.113-14.286 5.27-27.71 8.6-40.047 10.334-2.407 0.339-4.694 0.607-6.856 0.812l-0.187 0.346a153.228 153.228 0 0 0-4.492 9.05c-6.015 13.2-9.615 26.123-9.767 37.261-0.22 16.043 6.375 27 24.404 34.888l0.55 0.238 9.719 4.165 2.996 10.14c0.055 0.189 0.196 0.65 0.423 1.366l0.064 0.202 0.448 1.392c0.317 0.974 0.671 2.04 1.063 3.19l0.199 0.584 0.33 0.957a373.788 373.788 0 0 0 6.8 18.047c7.998 19.732 17.726 39.452 29.146 57.719 30.684 49.079 67.042 77.71 108.337 78.422 32.214 0.556 56.141-8.335 75.366-25.803 15.972-14.512 28.522-34.36 41.723-63.688l0.446-0.993 0.638-1.442c2.139-4.867 5.814-13.551 9.183-21.566l0.252-0.6 7.213-17.238 1.342-3.133c3.242-7.496 6.115-13.738 9.012-19.487l0.378-0.747 2.843-5.593 5.326-3.315 0.998-0.659 0.682-0.463a110.9 110.9 0 0 0 3.907-2.821c4.598-3.467 9.203-7.423 13.436-11.727 9.228-9.384 15.058-18.813 16.41-26.992 1.477-8.945-2.174-17.81-14.778-28.57a97.169 97.169 0 0 0-6.413-5.003c-49.937-3.264-98.446-23.516-144.147-55.089a424.883 424.883 0 0 1-45.424-36.241l-1.3-1.197-0.926-0.859z m-5.281-124.04l-0.735 0.459-6.04 3.792-7.122-0.379-0.875-0.02a86.466 86.466 0 0 0-3.97 0.037l-0.521 0.017-0.988 0.038-1.037 0.05c-4.473 0.227-9.32 0.707-14.424 1.496-13.736 2.123-27.268 6.136-39.731 12.41-19.861 9.997-35.53 24.957-46.006 46.132-11.108 22.456-16.198 51.513-13.974 88.07 7.663-1.45 15.994-3.739 24.904-7.026 31.5-11.621 64.441-33.387 97.465-68.071l1.001-1.055 16.766-17.741 16.32 18.153 1.03 1.11 0.275 0.291 0.287 0.303 0.933 0.974 1.038 1.069a310.543 310.543 0 0 0 11.23 10.886 380.225 380.225 0 0 0 41.757 33.46c34.651 23.938 70.59 40.112 106.368 45.553l1.084 0.161 0.148-0.945 0.147-0.954c3.923-25.629 5.304-52.009 2.702-76.159-3.968-36.823-16.59-62.625-38.763-75.097-36.265-20.398-65.87-30.592-90.754-32.154-21.424-1.345-39.894 3.618-58.515 15.14z" p-id="9247" fill="#ffffff"></path></svg>