<?xml version="1.0" standalone="no"?><!DOCTYPE svg PUBLIC "-//W3C//DTD SVG 1.1//EN" "http://www.w3.org/Graphics/SVG/1.1/DTD/svg11.dtd"><svg t="1752573808615" class="icon" viewBox="0 0 1024 1024" version="1.1" xmlns="http://www.w3.org/2000/svg" p-id="12288" xmlns:xlink="http://www.w3.org/1999/xlink" width="200" height="200"><path d="M353.449 456.097C158.234 456.097 0 672.563 0 939.616c0 8.861 0.181 17.768 0.543 26.583h705.632c0.453-8.815 0.635-17.722 0.635-26.583 0-267.053-158.236-483.519-353.361-483.519m3.256-49.729c98.467 0 178.397-78.031 178.397-174.329 0-96.206-79.93-174.237-178.397-174.237-98.557 0-178.308 78.031-178.308 174.237 0 96.297 79.751 174.329 178.308 174.329M788.187 625.59c-17.089 0-33.638 2.666-49.731 7.323 44.849 86.757 71.432 192.323 71.432 306.478 0 8.859-0.182 17.768-0.543 26.627h214.295c0.18-5.876 0.361-11.845 0.361-17.768-0.001-178.124-105.61-322.66-235.814-322.66m121.251-149.464c0-64.243-53.349-116.28-119.083-116.28s-118.991 52.037-118.991 116.28c0 64.288 53.257 116.326 118.991 116.326s119.083-52.038 119.083-116.326" fill="#10b041" p-id="12289"></path></svg>