<?xml version="1.0" standalone="no"?><!DOCTYPE svg PUBLIC "-//W3C//DTD SVG 1.1//EN" "http://www.w3.org/Graphics/SVG/1.1/DTD/svg11.dtd"><svg t="1752233451553" class="icon" viewBox="0 0 1024 1024" version="1.1" xmlns="http://www.w3.org/2000/svg" p-id="12636" xmlns:xlink="http://www.w3.org/1999/xlink" width="200" height="200"><path d="M238.506667 119.466667h229.76v672.853333h382.890666l-58.368 106.24H238.506667l58.368-106.24V186.752z" p-id="12637" fill="#f4ed67"></path><path d="M202.026667 817.152C129.109333 739.242667 85.333333 640.085333 85.333333 533.845333c0-113.322667 47.402667-219.605333 131.285334-297.514666l51.072 49.578666a335.317333 335.317333 0 0 0-109.44 247.893334c0 88.576 32.853333 170.026667 94.805333 233.770666l-51.029333 49.578667z m681.941333-77.909333l-61.994667-35.413334c29.184-53.162667 47.36-109.824 47.36-170.026666-3.584-191.189333-164.010667-343.466667-357.333333-343.466667V119.466667c233.386667 0 426.666667 184.192 426.666667 414.336 0 70.869333-21.888 141.653333-54.698667 205.44z" p-id="12638" fill="#f4ed67"></path></svg>